<svg xmlns="http://www.w3.org/2000/svg" width="22" height="18" viewBox="0 0 22 18"><path fill="#FFF" d="M6.32 10.27a.52.52 0 0 0-.4-.87H4.59a6.09 6.09 0 0 1 6.07-6.48c1.61 0 3.08.63 4.17 1.65l1.9-2.22A8.94 8.94 0 0 0 10.65 0a8.94 8.94 0 0 0-6.36 2.64A8.94 8.94 0 0 0 1.66 9.4H.52a.52.52 0 0 0-.39.87l2.56 2.94.54.61 1.93-2.21 1.16-1.34zm14.85-1.71-1.91-2.19-1.19-1.36-1.7 1.94-1.4 1.6a.52.52 0 0 0 .4.88h1.35a6.1 6.1 0 0 1-6.07 5.65 6.05 6.05 0 0 1-3.73-1.27l-1.9 2.22A8.93 8.93 0 0 0 10.66 18a8.94 8.94 0 0 0 6.36-2.64 8.94 8.94 0 0 0 2.63-5.93h1.14c.45 0 .69-.53.39-.87z"/></svg>