<svg xmlns="http://www.w3.org/2000/svg" width="16" height="16" viewBox="0 0 16 16"><g fill="#FFF"><path d="M8.67 12a.67.67 0 1 1-1.34 0 .67.67 0 0 1 1.34 0z"/><path d="M8 16A8 8 0 0 1 8 0a8 8 0 0 1 0 16zM8 1a7 7 0 1 0 .02 14.02A7 7 0 0 0 8 1z"/><path d="M8 9.83a.5.5 0 0 1-.5-.5v-.67c0-.64.4-1.2 1-1.42.8-.28 1.33-1.12 1.33-1.74A1.83 1.83 0 0 0 8 3.67 1.83 1.83 0 0 0 6.17 5.5a.5.5 0 0 1-1 0A2.84 2.84 0 0 1 8 2.67a2.84 2.84 0 0 1 2.83 2.83c0 1.11-.87 2.3-2 2.69a.5.5 0 0 0-.33.47v.67a.5.5 0 0 1-.5.5z"/></g></svg>